<svg width="1280" height="250" viewBox="0 0 1280 250" fill="none" xmlns="http://www.w3.org/2000/svg">
<g id="Hi, I&#226;&#128;&#153;m Alin !">
<path d="M487.531 101.88V147H474.987V128.888H459.691V147H447.147V101.88H459.691V118.84H474.987V101.88H487.531ZM501.045 107.768C498.826 107.768 497.034 107.171 495.669 105.976C494.346 104.739 493.685 103.203 493.685 101.368C493.685 99.4907 494.346 97.9333 495.669 96.696C497.034 95.4587 498.826 94.84 501.045 94.84C503.221 94.84 504.97 95.4587 506.293 96.696C507.658 97.9333 508.341 99.4907 508.341 101.368C508.341 103.203 507.658 104.739 506.293 105.976C504.97 107.171 503.221 107.768 501.045 107.768ZM507.253 111.096V147H494.709V111.096H507.253ZM527.901 136.248L521.053 154.936H513.117L516.445 136.248H527.901ZM559.316 101.88V147H546.772V101.88H559.316ZM569.531 101.88H582.203L574.843 119.928H566.459L569.531 101.88ZM635.496 110.776C640.019 110.776 643.56 112.141 646.12 114.872C648.723 117.603 650.024 121.336 650.024 126.072V147H637.48V127.736C637.48 125.816 636.947 124.323 635.88 123.256C634.813 122.189 633.363 121.656 631.528 121.656C629.693 121.656 628.243 122.189 627.176 123.256C626.109 124.323 625.576 125.816 625.576 127.736V147H613.032V127.736C613.032 125.816 612.499 124.323 611.432 123.256C610.408 122.189 608.979 121.656 607.144 121.656C605.267 121.656 603.795 122.189 602.728 123.256C601.661 124.323 601.128 125.816 601.128 127.736V147H588.584V111.096H601.128V115.832C602.237 114.296 603.667 113.08 605.416 112.184C607.208 111.245 609.256 110.776 611.56 110.776C614.205 110.776 616.552 111.352 618.6 112.504C620.691 113.656 622.333 115.277 623.528 117.368C624.808 115.405 626.493 113.827 628.584 112.632C630.675 111.395 632.979 110.776 635.496 110.776ZM697.691 139.64H681.691L679.259 147H666.075L682.523 101.88H696.987L713.371 147H700.123L697.691 139.64ZM694.555 130.04L689.691 115.448L684.891 130.04H694.555ZM730.003 99.64V147H717.459V99.64H730.003ZM743.483 107.768C741.264 107.768 739.472 107.171 738.107 105.976C736.784 104.739 736.123 103.203 736.123 101.368C736.123 99.4907 736.784 97.9333 738.107 96.696C739.472 95.4587 741.264 94.84 743.483 94.84C745.659 94.84 747.408 95.4587 748.731 96.696C750.096 97.9333 750.779 99.4907 750.779 101.368C750.779 103.203 750.096 104.739 748.731 105.976C747.408 107.171 745.659 107.768 743.483 107.768ZM749.691 111.096V147H737.147V111.096H749.691ZM780.322 110.776C784.461 110.776 787.746 112.163 790.178 114.936C792.61 117.667 793.826 121.379 793.826 126.072V147H781.282V127.736C781.282 125.688 780.749 124.088 779.682 122.936C778.615 121.741 777.186 121.144 775.394 121.144C773.517 121.144 772.045 121.741 770.978 122.936C769.911 124.088 769.378 125.688 769.378 127.736V147H756.834V111.096H769.378V116.216C770.487 114.595 771.981 113.293 773.858 112.312C775.735 111.288 777.89 110.776 780.322 110.776ZM829.727 99.576L828.255 130.104H817.567L816.095 99.576H829.727ZM822.943 147.512C820.724 147.512 818.932 146.915 817.567 145.72C816.244 144.483 815.583 142.925 815.583 141.048C815.583 139.171 816.244 137.613 817.567 136.376C818.932 135.139 820.724 134.52 822.943 134.52C825.119 134.52 826.868 135.139 828.191 136.376C829.556 137.613 830.239 139.171 830.239 141.048C830.239 142.883 829.556 144.419 828.191 145.656C826.868 146.893 825.119 147.512 822.943 147.512Z" fill="#F99B7D"/>
<path d="M487.531 101.88H488.531V100.88H487.531V101.88ZM487.531 147V148H488.531V147H487.531ZM474.987 147H473.987V148H474.987V147ZM474.987 128.888H475.987V127.888H474.987V128.888ZM459.691 128.888V127.888H458.691V128.888H459.691ZM459.691 147V148H460.691V147H459.691ZM447.147 147H446.147V148H447.147V147ZM447.147 101.88V100.88H446.147V101.88H447.147ZM459.691 101.88H460.691V100.88H459.691V101.88ZM459.691 118.84H458.691V119.84H459.691V118.84ZM474.987 118.84V119.84H475.987V118.84H474.987ZM474.987 101.88V100.88H473.987V101.88H474.987ZM486.531 101.88V147H488.531V101.88H486.531ZM487.531 146H474.987V148H487.531V146ZM475.987 147V128.888H473.987V147H475.987ZM474.987 127.888H459.691V129.888H474.987V127.888ZM458.691 128.888V147H460.691V128.888H458.691ZM459.691 146H447.147V148H459.691V146ZM448.147 147V101.88H446.147V147H448.147ZM447.147 102.88H459.691V100.88H447.147V102.88ZM458.691 101.88V118.84H460.691V101.88H458.691ZM459.691 119.84H474.987V117.84H459.691V119.84ZM475.987 118.84V101.88H473.987V118.84H475.987ZM474.987 102.88H487.531V100.88H474.987V102.88ZM495.669 105.976L494.986 106.706L494.998 106.718L495.01 106.729L495.669 105.976ZM495.669 96.696L494.997 95.955L494.992 95.9603L494.986 95.9657L495.669 96.696ZM506.293 96.696L505.61 97.4263L505.616 97.4317L505.621 97.437L506.293 96.696ZM506.293 105.976L506.963 106.718L506.965 106.717L506.293 105.976ZM507.253 111.096H508.253V110.096H507.253V111.096ZM507.253 147V148H508.253V147H507.253ZM494.709 147H493.709V148H494.709V147ZM494.709 111.096V110.096H493.709V111.096H494.709ZM501.045 106.768C499.012 106.768 497.472 106.225 496.328 105.223L495.01 106.729C496.596 108.116 498.64 108.768 501.045 108.768V106.768ZM496.352 105.246C495.235 104.2 494.685 102.93 494.685 101.368H492.685C492.685 103.475 493.458 105.277 494.986 106.706L496.352 105.246ZM494.685 101.368C494.685 99.756 495.24 98.4669 496.352 97.4263L494.986 95.9657C493.453 97.3998 492.685 99.2253 492.685 101.368H494.685ZM496.341 97.437C497.486 96.399 499.021 95.84 501.045 95.84V93.84C498.631 93.84 496.583 94.5183 494.997 95.955L496.341 97.437ZM501.045 95.84C503.021 95.84 504.509 96.396 505.61 97.4263L506.976 95.9657C505.432 94.5213 503.421 93.84 501.045 93.84V95.84ZM505.621 97.437C506.773 98.4807 507.341 99.7669 507.341 101.368H509.341C509.341 99.2144 508.543 97.3859 506.965 95.955L505.621 97.437ZM507.341 101.368C507.341 102.919 506.779 104.186 505.621 105.235L506.965 106.717C508.538 105.291 509.341 103.486 509.341 101.368H507.341ZM505.623 105.234C504.522 106.228 503.031 106.768 501.045 106.768V108.768C503.411 108.768 505.418 108.114 506.963 106.718L505.623 105.234ZM506.253 111.096V147H508.253V111.096H506.253ZM507.253 146H494.709V148H507.253V146ZM495.709 147V111.096H493.709V147H495.709ZM494.709 112.096H507.253V110.096H494.709V112.096ZM527.901 136.248L528.839 136.592L529.332 135.248H527.901V136.248ZM521.053 154.936V155.936H521.751L521.991 155.28L521.053 154.936ZM513.117 154.936L512.132 154.761L511.923 155.936H513.117V154.936ZM516.445 136.248V135.248H515.607L515.46 136.073L516.445 136.248ZM526.962 135.904L520.114 154.592L521.991 155.28L528.839 136.592L526.962 135.904ZM521.053 153.936H513.117V155.936H521.053V153.936ZM514.101 155.111L517.429 136.423L515.46 136.073L512.132 154.761L514.101 155.111ZM516.445 137.248H527.901V135.248H516.445V137.248ZM559.316 101.88H560.316V100.88H559.316V101.88ZM559.316 147V148H560.316V147H559.316ZM546.772 147H545.772V148H546.772V147ZM546.772 101.88V100.88H545.772V101.88H546.772ZM558.316 101.88V147H560.316V101.88H558.316ZM559.316 146H546.772V148H559.316V146ZM547.772 147V101.88H545.772V147H547.772ZM546.772 102.88H559.316V100.88H546.772V102.88ZM569.531 101.88V100.88H568.687L568.545 101.712L569.531 101.88ZM582.203 101.88L583.129 102.258L583.691 100.88H582.203V101.88ZM574.843 119.928V120.928H575.515L575.769 120.306L574.843 119.928ZM566.459 119.928L565.473 119.76L565.274 120.928H566.459V119.928ZM569.531 102.88H582.203V100.88H569.531V102.88ZM581.277 101.502L573.917 119.55L575.769 120.306L583.129 102.258L581.277 101.502ZM574.843 118.928H566.459V120.928H574.843V118.928ZM567.445 120.096L570.517 102.048L568.545 101.712L565.473 119.76L567.445 120.096ZM646.12 114.872L645.39 115.556L645.396 115.562L646.12 114.872ZM650.024 147V148H651.024V147H650.024ZM637.48 147H636.48V148H637.48V147ZM635.88 123.256L635.173 123.963L635.173 123.963L635.88 123.256ZM627.176 123.256L627.883 123.963L627.883 123.963L627.176 123.256ZM625.576 147V148H626.576V147H625.576ZM613.032 147H612.032V148H613.032V147ZM611.432 123.256L610.711 123.949L610.718 123.956L610.725 123.963L611.432 123.256ZM601.128 147V148H602.128V147H601.128ZM588.584 147H587.584V148H588.584V147ZM588.584 111.096V110.096H587.584V111.096H588.584ZM601.128 111.096H602.128V110.096H601.128V111.096ZM601.128 115.832H600.128V118.925L601.939 116.417L601.128 115.832ZM605.416 112.184L605.872 113.074L605.88 113.07L605.416 112.184ZM618.6 112.504L618.11 113.376L618.117 113.38L618.6 112.504ZM623.528 117.368L622.66 117.864L623.472 119.285L624.366 117.914L623.528 117.368ZM628.584 112.632L629.08 113.5L629.087 113.496L629.093 113.493L628.584 112.632ZM635.496 111.776C639.804 111.776 643.058 113.068 645.39 115.556L646.85 114.188C644.062 111.214 640.233 109.776 635.496 109.776V111.776ZM645.396 115.562C647.779 118.062 649.024 121.524 649.024 126.072H651.024C651.024 121.148 649.666 117.143 646.844 114.182L645.396 115.562ZM649.024 126.072V147H651.024V126.072H649.024ZM650.024 146H637.48V148H650.024V146ZM638.48 147V127.736H636.48V147H638.48ZM638.48 127.736C638.48 125.627 637.889 123.851 636.587 122.549L635.173 123.963C636.004 124.795 636.48 126.005 636.48 127.736H638.48ZM636.587 122.549C635.294 121.255 633.567 120.656 631.528 120.656V122.656C633.159 122.656 634.333 123.123 635.173 123.963L636.587 122.549ZM631.528 120.656C629.489 120.656 627.762 121.255 626.469 122.549L627.883 123.963C628.723 123.123 629.897 122.656 631.528 122.656V120.656ZM626.469 122.549C625.167 123.851 624.576 125.627 624.576 127.736H626.576C626.576 126.005 627.052 124.795 627.883 123.963L626.469 122.549ZM624.576 127.736V147H626.576V127.736H624.576ZM625.576 146H613.032V148H625.576V146ZM614.032 147V127.736H612.032V147H614.032ZM614.032 127.736C614.032 125.627 613.441 123.851 612.139 122.549L610.725 123.963C611.556 124.795 612.032 126.005 612.032 127.736H614.032ZM612.153 122.563C610.897 121.255 609.181 120.656 607.144 120.656V122.656C608.776 122.656 609.919 123.124 610.711 123.949L612.153 122.563ZM607.144 120.656C605.07 120.656 603.319 121.251 602.021 122.549L603.435 123.963C604.271 123.127 605.463 122.656 607.144 122.656V120.656ZM602.021 122.549C600.719 123.851 600.128 125.627 600.128 127.736H602.128C602.128 126.005 602.604 124.795 603.435 123.963L602.021 122.549ZM600.128 127.736V147H602.128V127.736H600.128ZM601.128 146H588.584V148H601.128V146ZM589.584 147V111.096H587.584V147H589.584ZM588.584 112.096H601.128V110.096H588.584V112.096ZM600.128 111.096V115.832H602.128V111.096H600.128ZM601.939 116.417C602.952 115.014 604.258 113.901 605.872 113.074L604.96 111.294C603.076 112.259 601.523 113.578 600.317 115.247L601.939 116.417ZM605.88 113.07C607.51 112.216 609.395 111.776 611.56 111.776V109.776C609.117 109.776 606.906 110.275 604.952 111.298L605.88 113.07ZM611.56 111.776C614.056 111.776 616.229 112.318 618.11 113.376L619.09 111.632C616.875 110.386 614.355 109.776 611.56 109.776V111.776ZM618.117 113.38C620.046 114.442 621.555 115.932 622.66 117.864L624.396 116.872C623.111 114.623 621.336 112.87 619.083 111.628L618.117 113.38ZM624.366 117.914C625.556 116.088 627.123 114.618 629.08 113.5L628.088 111.764C625.863 113.035 624.06 114.722 622.69 116.822L624.366 117.914ZM629.093 113.493C631.024 112.35 633.151 111.776 635.496 111.776V109.776C632.806 109.776 630.325 110.439 628.075 111.771L629.093 113.493ZM697.691 139.64L698.64 139.326L698.413 138.64H697.691V139.64ZM681.691 139.64V138.64H680.968L680.741 139.326L681.691 139.64ZM679.259 147V148H679.981L680.208 147.314L679.259 147ZM666.075 147L665.135 146.658L664.646 148H666.075V147ZM682.523 101.88V100.88H681.823L681.583 101.538L682.523 101.88ZM696.987 101.88L697.926 101.539L697.687 100.88H696.987V101.88ZM713.371 147V148H714.798L714.31 146.659L713.371 147ZM700.123 147L699.173 147.314L699.4 148H700.123V147ZM694.555 130.04V131.04H695.942L695.503 129.724L694.555 130.04ZM689.691 115.448L690.639 115.132L689.684 112.267L688.741 115.136L689.691 115.448ZM684.891 130.04L683.941 129.728L683.509 131.04H684.891V130.04ZM697.691 138.64H681.691V140.64H697.691V138.64ZM680.741 139.326L678.309 146.686L680.208 147.314L682.64 139.954L680.741 139.326ZM679.259 146H666.075V148H679.259V146ZM667.014 147.342L683.462 102.222L681.583 101.538L665.135 146.658L667.014 147.342ZM682.523 102.88H696.987V100.88H682.523V102.88ZM696.047 102.221L712.431 147.341L714.31 146.659L697.926 101.539L696.047 102.221ZM713.371 146H700.123V148H713.371V146ZM701.072 146.686L698.64 139.326L696.741 139.954L699.173 147.314L701.072 146.686ZM695.503 129.724L690.639 115.132L688.742 115.764L693.606 130.356L695.503 129.724ZM688.741 115.136L683.941 129.728L685.84 130.352L690.64 115.76L688.741 115.136ZM684.891 131.04H694.555V129.04H684.891V131.04ZM730.003 99.64H731.003V98.64H730.003V99.64ZM730.003 147V148H731.003V147H730.003ZM717.459 147H716.459V148H717.459V147ZM717.459 99.64V98.64H716.459V99.64H717.459ZM729.003 99.64V147H731.003V99.64H729.003ZM730.003 146H717.459V148H730.003V146ZM718.459 147V99.64H716.459V147H718.459ZM717.459 100.64H730.003V98.64H717.459V100.64ZM738.107 105.976L737.423 106.706L737.435 106.718L737.448 106.729L738.107 105.976ZM738.107 96.696L737.435 95.955L737.429 95.9603L737.423 95.9657L738.107 96.696ZM748.731 96.696L748.047 97.4263L748.053 97.4317L748.059 97.437L748.731 96.696ZM748.731 105.976L749.401 106.718L749.402 106.717L748.731 105.976ZM749.691 111.096H750.691V110.096H749.691V111.096ZM749.691 147V148H750.691V147H749.691ZM737.147 147H736.147V148H737.147V147ZM737.147 111.096V110.096H736.147V111.096H737.147ZM743.483 106.768C741.45 106.768 739.91 106.225 738.765 105.223L737.448 106.729C739.034 108.116 741.078 108.768 743.483 108.768V106.768ZM738.79 105.246C737.672 104.2 737.123 102.93 737.123 101.368H735.123C735.123 103.475 735.896 105.277 737.423 106.706L738.79 105.246ZM737.123 101.368C737.123 99.756 737.677 98.4669 738.79 97.4263L737.423 95.9657C735.89 97.3998 735.123 99.2253 735.123 101.368H737.123ZM738.778 97.437C739.923 96.399 741.459 95.84 743.483 95.84V93.84C741.069 93.84 739.02 94.5183 737.435 95.955L738.778 97.437ZM743.483 95.84C745.459 95.84 746.946 96.396 748.047 97.4263L749.414 95.9657C747.87 94.5213 745.858 93.84 743.483 93.84V95.84ZM748.059 97.437C749.211 98.4807 749.779 99.7669 749.779 101.368H751.779C751.779 99.2144 750.981 97.3859 749.402 95.955L748.059 97.437ZM749.779 101.368C749.779 102.919 749.216 104.186 748.059 105.235L749.402 106.717C750.975 105.291 751.779 103.486 751.779 101.368H749.779ZM748.06 105.234C746.96 106.228 745.468 106.768 743.483 106.768V108.768C745.849 108.768 747.856 108.114 749.401 106.718L748.06 105.234ZM748.691 111.096V147H750.691V111.096H748.691ZM749.691 146H737.147V148H749.691V146ZM738.147 147V111.096H736.147V147H738.147ZM737.147 112.096H749.691V110.096H737.147V112.096ZM790.178 114.936L789.426 115.595L789.431 115.601L790.178 114.936ZM793.826 147V148H794.826V147H793.826ZM781.282 147H780.282V148H781.282V147ZM779.682 122.936L778.936 123.602L778.942 123.609L778.948 123.615L779.682 122.936ZM770.978 122.936L771.712 123.615L771.718 123.609L771.724 123.602L770.978 122.936ZM769.378 147V148H770.378V147H769.378ZM756.834 147H755.834V148H756.834V147ZM756.834 111.096V110.096H755.834V111.096H756.834ZM769.378 111.096H770.378V110.096H769.378V111.096ZM769.378 116.216H768.378V119.448L770.203 116.781L769.378 116.216ZM773.858 112.312L774.321 113.198L774.329 113.194L774.337 113.19L773.858 112.312ZM780.322 111.776C784.212 111.776 787.208 113.066 789.426 115.595L790.93 114.277C788.284 111.259 784.709 109.776 780.322 109.776V111.776ZM789.431 115.601C791.658 118.101 792.826 121.552 792.826 126.072H794.826C794.826 121.205 793.562 117.232 790.925 114.271L789.431 115.601ZM792.826 126.072V147H794.826V126.072H792.826ZM793.826 146H781.282V148H793.826V146ZM782.282 147V127.736H780.282V147H782.282ZM782.282 127.736C782.282 125.515 781.701 123.644 780.416 122.257L778.948 123.615C779.797 124.532 780.282 125.861 780.282 127.736H782.282ZM780.428 122.27C779.148 120.836 777.433 120.144 775.394 120.144V122.144C776.939 122.144 778.083 122.646 778.936 123.602L780.428 122.27ZM775.394 120.144C773.286 120.144 771.522 120.826 770.232 122.27L771.724 123.602C772.568 122.657 773.748 122.144 775.394 122.144V120.144ZM770.244 122.257C768.959 123.644 768.378 125.515 768.378 127.736H770.378C770.378 125.861 770.863 124.532 771.712 123.615L770.244 122.257ZM768.378 127.736V147H770.378V127.736H768.378ZM769.378 146H756.834V148H769.378V146ZM757.834 147V111.096H755.834V147H757.834ZM756.834 112.096H769.378V110.096H756.834V112.096ZM768.378 111.096V116.216H770.378V111.096H768.378ZM770.203 116.781C771.213 115.305 772.577 114.11 774.321 113.198L773.395 111.426C771.384 112.477 769.762 113.884 768.553 115.651L770.203 116.781ZM774.337 113.19C776.048 112.256 778.034 111.776 780.322 111.776V109.776C777.746 109.776 775.423 110.32 773.379 111.434L774.337 113.19ZM829.727 99.576L830.726 99.6242L830.776 98.576H829.727V99.576ZM828.255 130.104V131.104H829.208L829.254 130.152L828.255 130.104ZM817.567 130.104L816.568 130.152L816.614 131.104H817.567V130.104ZM816.095 99.576V98.576H815.046L815.096 99.6242L816.095 99.576ZM817.567 145.72L816.884 146.45L816.896 146.462L816.908 146.473L817.567 145.72ZM817.567 136.376L816.895 135.635L816.89 135.64L816.884 135.646L817.567 136.376ZM828.191 136.376L827.508 137.106L827.514 137.112L827.519 137.117L828.191 136.376ZM828.191 145.656L827.519 144.915L827.514 144.92L827.508 144.926L828.191 145.656ZM828.728 99.5278L827.256 130.056L829.254 130.152L830.726 99.6242L828.728 99.5278ZM828.255 129.104H817.567V131.104H828.255V129.104ZM818.566 130.056L817.094 99.5278L815.096 99.6242L816.568 130.152L818.566 130.056ZM816.095 100.576H829.727V98.576H816.095V100.576ZM822.943 146.512C820.91 146.512 819.37 145.969 818.226 144.967L816.908 146.473C818.494 147.86 820.538 148.512 822.943 148.512V146.512ZM818.25 144.99C817.138 143.949 816.583 142.66 816.583 141.048H814.583C814.583 143.191 815.351 145.016 816.884 146.45L818.25 144.99ZM816.583 141.048C816.583 139.436 817.138 138.147 818.25 137.106L816.884 135.646C815.351 137.08 814.583 138.905 814.583 141.048H816.583ZM818.239 137.117C819.384 136.079 820.919 135.52 822.943 135.52V133.52C820.529 133.52 818.481 134.198 816.895 135.635L818.239 137.117ZM822.943 135.52C824.919 135.52 826.407 136.076 827.508 137.106L828.874 135.646C827.33 134.201 825.319 133.52 822.943 133.52V135.52ZM827.519 137.117C828.671 138.161 829.239 139.447 829.239 141.048H831.239C831.239 138.894 830.441 137.066 828.863 135.635L827.519 137.117ZM829.239 141.048C829.239 142.599 828.677 143.866 827.519 144.915L828.863 146.397C830.436 144.971 831.239 143.166 831.239 141.048H829.239ZM827.508 144.926C826.407 145.956 824.919 146.512 822.943 146.512V148.512C825.319 148.512 827.33 147.831 828.874 146.386L827.508 144.926Z" fill="black"/>
</g>
</svg>
