<svg xmlns="http://www.w3.org/2000/svg" version="1.1" xmlns:xlink="http://www.w3.org/1999/xlink" xmlns:svgjs="http://svgjs.dev/svgjs" width="1000" height="1000" viewBox="0 0 1000 1000"><rect width="1000" height="1000" fill="#ffffff"></rect><g transform="matrix(0.7,0,0,0.7,149.57575757575756,282.1265587044535)"><svg viewBox="0 0 396 247" data-background-color="#ffffff" preserveAspectRatio="xMidYMid meet" height="623" width="1000" xmlns="http://www.w3.org/2000/svg" xmlns:xlink="http://www.w3.org/1999/xlink"><g id="tight-bounds" transform="matrix(1,0,0,1,0.2400000000000091,-0.09999999999999432)"><svg viewBox="0 0 395.52 247.2" height="247.2" width="395.52"><g><svg></svg></g><g><svg viewBox="0 0 395.52 247.2" height="247.2" width="395.52"><g transform="matrix(1,0,0,1,75.54432,69.30913346693387)"><svg viewBox="0 0 244.43135999999998 108.58173306613224" height="108.58173306613224" width="244.43135999999998"><g><svg viewBox="0 0 244.43135999999998 108.58173306613224" height="108.58173306613224" width="244.43135999999998"><g><svg viewBox="0 0 244.43136 108.58173306613226" height="108.58173306613224" width="244.43135999999998"><g><svg viewBox="0 0 244.43136 108.58173306613226" height="108.58173306613226" width="244.43136"><g id="textblocktransform"><svg viewBox="0 0 244.43136 108.58173306613226" height="108.58173306613226" width="244.43136" id="textblock"><g><svg viewBox="0 0 244.43136 108.58173306613226" height="108.58173306613226" width="244.43136"><g transform="matrix(1,0,0,1,0,0)"><svg width="244.43136" viewBox="0.5 -33.25 74.8499984741211 33.25" height="108.58173306613226" data-palette-color="#0063db"><path d="M11.35 0L0.5 0 0.5-0.8 3.45-2.55 16.7-33.25 22.45-33.25 35.55-2.55 39-0.8 39 0 21 0 21-0.8 25.3-2.65 22.1-10.35 10.45-10.35 7.25-2.65 11.35-0.8 11.35 0ZM16.3-24.25L11.6-13.1 20.95-13.1 16.3-24.25ZM60.4 0L41 0 41-0.8 45.45-2.9 45.45-30.1 41-32.2 41-33 59.15-33Q62.9-33 65.87-32.18 68.85-31.35 70.57-29.73 72.3-28.1 72.3-25.6L72.3-25.6Q72.3-23.05 70.22-20.9 68.15-18.75 64.35-17.9L64.35-17.9Q69.45-17.2 72.4-15.05 75.35-12.9 75.35-9.6L75.35-9.6Q75.35-6.85 73.4-4.67 71.45-2.5 68.07-1.25 64.7 0 60.4 0L60.4 0ZM55.85-30.25L55.85-30.25 54.95-30.25 54.95-18.15 56.1-18.15Q59.25-18.15 61.02-19.75 62.8-21.35 62.8-24L62.8-24Q62.8-27.05 61.07-28.65 59.35-30.25 55.85-30.25ZM57.5-15.9L57.5-15.9 54.95-15.9 54.95-2.75 57.85-2.75Q61.3-2.75 63.3-4.65 65.3-6.55 65.3-9.45L65.3-9.45Q65.3-12.7 63.27-14.3 61.25-15.9 57.5-15.9Z" opacity="1" transform="matrix(1,0,0,1,0,0)" fill="#0063db" class="undefined-text-0" data-fill-palette-color="primary" id="text-0"></path></svg></g></svg></g></svg></g></svg></g></svg></g></svg></g></svg></g><g><path d="M245.816 0c68.262 0 123.6 55.338 123.6 123.6 0 68.262-55.338 123.6-123.6 123.6-43.522 0-81.791-22.495-103.813-56.492h5.885c21.394 31.16 57.274 51.596 97.928 51.596 65.558 0 118.704-53.146 118.704-118.704 0-65.558-53.146-118.704-118.704-118.704-40.653 0-76.534 20.436-97.928 51.596l-5.885 0c22.022-33.997 60.291-56.492 103.813-56.492z" fill="#0063db" stroke="transparent" data-fill-palette-color="tertiary"></path></g></svg></g><defs></defs></svg><rect width="395.52" height="247.2" fill="none" stroke="none" visibility="hidden"></rect></g></svg></g></svg>